<mxfile host="65bd71144e">
    <diagram id="hWWTB4xwYj2qc0XBUp18" name="Page-1">
        <mxGraphModel dx="708" dy="397" grid="1" gridSize="10" guides="1" tooltips="1" connect="1" arrows="1" fold="1" page="1" pageScale="1" pageWidth="850" pageHeight="1100" math="1" shadow="0">
            <root>
                <mxCell id="0"/>
                <mxCell id="1" parent="0"/>
                <mxCell id="49" value="" style="shape=trapezoid;perimeter=trapezoidPerimeter;whiteSpace=wrap;html=1;fixedSize=1;" vertex="1" parent="1">
                    <mxGeometry x="230" y="60" width="250" height="20" as="geometry"/>
                </mxCell>
                <mxCell id="48" value="Denavit-Hartenburg" style="text;html=1;strokeColor=none;fillColor=none;align=center;verticalAlign=middle;whiteSpace=wrap;rounded=0;" vertex="1" parent="1">
                    <mxGeometry x="287.5" y="55" width="135" height="30" as="geometry"/>
                </mxCell>
                <mxCell id="9" value="" style="rounded=1;whiteSpace=wrap;html=1;" vertex="1" parent="1">
                    <mxGeometry x="40" y="240" width="40" height="40" as="geometry"/>
                </mxCell>
                <mxCell id="10" value="" style="rounded=1;whiteSpace=wrap;html=1;" vertex="1" parent="1">
                    <mxGeometry x="40" y="300" width="40" height="40" as="geometry"/>
                </mxCell>
                <mxCell id="11" value="" style="rounded=1;whiteSpace=wrap;html=1;" vertex="1" parent="1">
                    <mxGeometry x="40" y="360" width="40" height="40" as="geometry"/>
                </mxCell>
                <mxCell id="12" value="" style="rounded=1;whiteSpace=wrap;html=1;" vertex="1" parent="1">
                    <mxGeometry x="40" y="420" width="40" height="40" as="geometry"/>
                </mxCell>
                <mxCell id="13" value="" style="rounded=1;whiteSpace=wrap;html=1;" vertex="1" parent="1">
                    <mxGeometry x="40" y="480" width="40" height="40" as="geometry"/>
                </mxCell>
                <mxCell id="14" value="" style="rounded=1;whiteSpace=wrap;html=1;" vertex="1" parent="1">
                    <mxGeometry x="40" y="540" width="40" height="40" as="geometry"/>
                </mxCell>
                <mxCell id="47" value="" style="group" vertex="1" connectable="0" parent="1">
                    <mxGeometry x="200" y="80" width="310" height="230" as="geometry"/>
                </mxCell>
                <mxCell id="41" value="" style="rounded=1;whiteSpace=wrap;html=1;" vertex="1" parent="47">
                    <mxGeometry width="310" height="230" as="geometry"/>
                </mxCell>
                <mxCell id="43" value="" style="rounded=1;whiteSpace=wrap;html=1;fillColor=#a0522d;fontColor=#ffffff;strokeColor=#6D1F00;" vertex="1" parent="47">
                    <mxGeometry x="160" y="120" width="130" height="90" as="geometry"/>
                </mxCell>
                <mxCell id="42" value="" style="rounded=1;whiteSpace=wrap;html=1;fillColor=#76608a;fontColor=#ffffff;strokeColor=#432D57;" vertex="1" parent="47">
                    <mxGeometry x="20" y="120" width="130" height="90" as="geometry"/>
                </mxCell>
                <mxCell id="46" value="" style="rounded=1;whiteSpace=wrap;html=1;fillColor=#647687;fontColor=#ffffff;strokeColor=#314354;" vertex="1" parent="47">
                    <mxGeometry x="160" y="20" width="130" height="90" as="geometry"/>
                </mxCell>
                <mxCell id="45" value="" style="rounded=1;whiteSpace=wrap;html=1;fillColor=#6d8764;fontColor=#ffffff;strokeColor=#3A5431;" vertex="1" parent="47">
                    <mxGeometry x="20" y="20" width="130" height="90" as="geometry"/>
                </mxCell>
                <mxCell id="17" value="$$\alpha_0$$" style="rounded=1;whiteSpace=wrap;html=1;" vertex="1" parent="47">
                    <mxGeometry x="170" y="30" width="30" height="30" as="geometry"/>
                </mxCell>
                <mxCell id="18" value="$$\alpha_1$$" style="rounded=1;whiteSpace=wrap;html=1;" vertex="1" parent="47">
                    <mxGeometry x="210" y="30" width="30" height="30" as="geometry"/>
                </mxCell>
                <mxCell id="19" value="$$\alpha_2$$" style="rounded=1;whiteSpace=wrap;html=1;" vertex="1" parent="47">
                    <mxGeometry x="250" y="30" width="30" height="30" as="geometry"/>
                </mxCell>
                <mxCell id="20" value="$$\alpha_3$$" style="rounded=1;whiteSpace=wrap;html=1;" vertex="1" parent="47">
                    <mxGeometry x="170" y="70" width="30" height="30" as="geometry"/>
                </mxCell>
                <mxCell id="21" value="$$\alpha_4$$" style="rounded=1;whiteSpace=wrap;html=1;" vertex="1" parent="47">
                    <mxGeometry x="210" y="70" width="30" height="30" as="geometry"/>
                </mxCell>
                <mxCell id="22" value="$$\alpha_5$$" style="rounded=1;whiteSpace=wrap;html=1;" vertex="1" parent="47">
                    <mxGeometry x="250" y="70" width="30" height="30" as="geometry"/>
                </mxCell>
                <mxCell id="23" value="$$a_0$$" style="rounded=1;whiteSpace=wrap;html=1;" vertex="1" parent="47">
                    <mxGeometry x="30" y="130" width="30" height="30" as="geometry"/>
                </mxCell>
                <mxCell id="24" value="$$a_1$$" style="rounded=1;whiteSpace=wrap;html=1;" vertex="1" parent="47">
                    <mxGeometry x="70" y="130" width="30" height="30" as="geometry"/>
                </mxCell>
                <mxCell id="25" value="$$a_2$$" style="rounded=1;whiteSpace=wrap;html=1;" vertex="1" parent="47">
                    <mxGeometry x="110" y="130" width="30" height="30" as="geometry"/>
                </mxCell>
                <mxCell id="26" value="$$a_3$$" style="rounded=1;whiteSpace=wrap;html=1;" vertex="1" parent="47">
                    <mxGeometry x="30" y="170" width="30" height="30" as="geometry"/>
                </mxCell>
                <mxCell id="27" value="$$a_4$$" style="rounded=1;whiteSpace=wrap;html=1;" vertex="1" parent="47">
                    <mxGeometry x="70" y="170" width="30" height="30" as="geometry"/>
                </mxCell>
                <mxCell id="28" value="$$a_5$$" style="rounded=1;whiteSpace=wrap;html=1;" vertex="1" parent="47">
                    <mxGeometry x="110" y="170" width="30" height="30" as="geometry"/>
                </mxCell>
                <mxCell id="29" value="$$d_0$$" style="rounded=1;whiteSpace=wrap;html=1;" vertex="1" parent="47">
                    <mxGeometry x="170" y="130" width="30" height="30" as="geometry"/>
                </mxCell>
                <mxCell id="30" value="$$d_1$$" style="rounded=1;whiteSpace=wrap;html=1;" vertex="1" parent="47">
                    <mxGeometry x="210" y="130" width="30" height="30" as="geometry"/>
                </mxCell>
                <mxCell id="31" value="$$d_2$$" style="rounded=1;whiteSpace=wrap;html=1;" vertex="1" parent="47">
                    <mxGeometry x="250" y="130" width="30" height="30" as="geometry"/>
                </mxCell>
                <mxCell id="32" value="$$d_3$$" style="rounded=1;whiteSpace=wrap;html=1;" vertex="1" parent="47">
                    <mxGeometry x="170" y="170" width="30" height="30" as="geometry"/>
                </mxCell>
                <mxCell id="33" value="$$d_4$$" style="rounded=1;whiteSpace=wrap;html=1;" vertex="1" parent="47">
                    <mxGeometry x="210" y="170" width="30" height="30" as="geometry"/>
                </mxCell>
                <mxCell id="34" value="$$d_5$$" style="rounded=1;whiteSpace=wrap;html=1;" vertex="1" parent="47">
                    <mxGeometry x="250" y="170" width="30" height="30" as="geometry"/>
                </mxCell>
                <mxCell id="35" value="$$\theta_0$$" style="rounded=1;whiteSpace=wrap;html=1;" vertex="1" parent="47">
                    <mxGeometry x="30" y="30" width="30" height="30" as="geometry"/>
                </mxCell>
                <mxCell id="36" value="$$\theta_1$$" style="rounded=1;whiteSpace=wrap;html=1;" vertex="1" parent="47">
                    <mxGeometry x="70" y="30" width="30" height="30" as="geometry"/>
                </mxCell>
                <mxCell id="37" value="$$\theta_2$$" style="rounded=1;whiteSpace=wrap;html=1;" vertex="1" parent="47">
                    <mxGeometry x="110" y="30" width="30" height="30" as="geometry"/>
                </mxCell>
                <mxCell id="38" value="$$\theta_3$$" style="rounded=1;whiteSpace=wrap;html=1;" vertex="1" parent="47">
                    <mxGeometry x="30" y="70" width="30" height="30" as="geometry"/>
                </mxCell>
                <mxCell id="39" value="$$\theta_4$$" style="rounded=1;whiteSpace=wrap;html=1;" vertex="1" parent="47">
                    <mxGeometry x="70" y="70" width="30" height="30" as="geometry"/>
                </mxCell>
                <mxCell id="40" value="$$\theta_5$$" style="rounded=1;whiteSpace=wrap;html=1;" vertex="1" parent="47">
                    <mxGeometry x="110" y="70" width="30" height="30" as="geometry"/>
                </mxCell>
            </root>
        </mxGraphModel>
    </diagram>
</mxfile>